<svg xmlns="http://www.w3.org/2000/svg" width="2125" height="845" version="1.0"><g fill="#fff"><path d="M143.5 3.6c-6.2 2.2-13.7 8.4-17.2 14.3-6.3 10.6-7.8 27.4-3.2 37.2 3.6 7.6 8.9 13.3 15.7 16.6l5.7 2.8L423 75c153.2.3 279.1.2 279.9-.1 1.7-.8-14.4-17.8-25.9-27.3-29.5-24.5-64.6-38.4-111-44.1-18.1-2.2-416.3-2.1-422.5.1zM1033.5 3.6c-34.7 5.4-63.8 16.5-90.4 34.3-15.1 10.2-43.5 35.3-41.6 36.8.6.4 116 .6 256.5.3l255.5-.5 4.7-2.2c5.4-2.5 13.1-9.2 16.4-14.4 5.6-8.9 6.7-22 2.8-33.2-2.2-6.5-10.3-15.1-17.8-19l-6.1-3.2-185.5-.2c-154.8-.1-187 .1-194.5 1.3zM1715.5 3.6c-39.9 5.4-74.7 20.3-106 45.2-8 6.4-27.5 24.6-27.5 25.6 0 .4 116 .5 257.8.4l257.7-.3 5.6-2.8c6.2-3 13.6-10.3 16.7-16.4 4.8-9.3 4.9-24.1.2-33.2-3.3-6.6-9.8-12.9-16.8-16.3l-6.7-3.3-185.5-.2c-152.3-.1-187.3.1-195.5 1.3zM127.8 116.5c-9.7 2.6-18 10.3-21.9 20.1-1.9 4.9-2.3 7.8-2.3 16.9-.1 10.1.1 11.5 2.7 16.7 3.3 6.7 9 12.1 16.6 15.7l5.6 2.6h612l-.2-8.8c-.4-16.3-6.6-47-12.2-60l-2-4.7-296.8.1c-239.2.1-297.7.3-301.5 1.4zM863 124.5c-11.7 17.9-31.7 61.2-29.3 63.6.6.6 102.2.8 280.4.7l279.4-.3 5.7-2.3c7.5-3 16-10.8 19.2-17.6 7.4-15.6 4.1-32.6-8.6-44-11.1-10.1 20.6-9.1-277.9-9.4l-262.6-.2-6.3 9.5zM1545.5 122.2c-2.7 4-7.7 12.3-11.1 18.5-9 15.9-21 44.3-20 47 .4 1.1 51.3 1.3 278.4 1.3 183.8 0 279.7-.3 283.3-1 11.7-2.2 20.9-9.2 26.1-19.8 3-6.1 3.3-7.4 3.3-16.2 0-8.4-.3-10.2-2.9-15.8-1.9-4.2-4.7-7.9-8.2-11.1-6.1-5.6-10.2-7.7-17.5-9.1-3.3-.6-98.4-1-265.9-1h-260.7l-4.8 7.2zM112.3 228c-9.1 2.1-18.3 9.7-22.9 18.7-3.8 7.6-4.5 19.4-1.6 27.1 4.4 11.4 13.7 19.4 25.6 21.9 4.7 1 25.1 1.3 87.4 1.3H282l.9-2.3c1.5-3.9 10.1-59.2 10.1-65V227l-88.7.1c-48.9.1-90.2.4-92 .9zM488.5 228.2c-.2.7-1.2 6.7-2 13.3-.9 6.6-3.2 21.4-5.1 32.8-1.9 11.4-3.2 21.2-2.9 21.8.4.5 46.2.9 119.9.9 112.4 0 119.4-.1 120.8-1.8 2.7-3.2 10.2-24.1 14.2-39.7 1.5-6 4.6-24.1 4.6-27 0-1.3-14.1-1.5-124.5-1.5-98.8 0-124.7.3-125 1.2zM822.2 228.7c-1.4 2.7-4.9 17.7-6.6 28.5-.9 5.4-1.6 15.6-1.6 22.8v13h248l.9-2.3c.7-1.9 3-15.9 8.6-53.2.7-5 1.1-9.3.8-9.8-.2-.4-56.4-.7-124.8-.7-117.5 0-124.5.1-125.3 1.7zM1503 229.2c-4.1 9.8-8 34.2-8 50.6V293l125.7-.2 125.8-.3 1.3-7c1.8-10.1 8.2-53.6 8.2-56.3V227h-252l-1 2.2zM814.4 331.5c-1.4 3.4 6.6 42.4 11.9 58l2.4 7H1090c176.4 0 261.4-.3 261.7-1 .5-1.6-18.3-22.1-26.7-29.1-17.7-14.9-41.2-28.7-57-33.6l-7.5-2.3-222.8-.3c-196.2-.2-222.8-.1-223.3 1.3zM1495.3 331.6c-1.3 3.4 7.2 44.1 12.5 59.4l1.9 5.5 263.2.3c227.8.2 263.2 0 262.9-1.2-.6-2.8-17.8-21.5-26.1-28.5-18.8-15.6-40.4-28.6-57.2-34.2l-7-2.4-224.8-.3c-203.7-.2-224.8-.1-225.4 1.4zM89.5 336.6C67 348.2 62.6 377.8 81 394.3c2.7 2.5 7.1 5.3 9.8 6.3 4.5 1.7 17.5 1.8 270.5 2.1 258.8.4 265.9.3 270-1.5 9.1-4.1 29.4-21.2 43.9-36.9 9-9.8 23.8-28.1 23.8-29.4 0-.5-129.1-.9-302.2-.9l-302.3.1-5 2.5zM845 429.5c0 1.2 11.3 16.6 15.8 21.6 7.1 8 23.7 22.3 33.3 28.9 10.9 7.5 25 14.6 31.4 16 3.4.7 79.4 1.1 233.3 1.3l228.2.2V495c0-3.5-3.7-25.1-5.6-32.4-2.8-11-8.5-29.1-10-31.4l-1.4-2.2h-262.5c-144.4 0-262.5.2-262.5.5zM1526 429.4c0 .3 2.6 4.2 5.7 8.8 9.9 14.3 25.7 29.5 44 42.2 8.7 6.1 26.7 15 32.2 16 1.9.3 106.7.6 233 .6 200.1.1 229.6-.1 229.9-1.4 1.1-5.2-8.5-46.3-14.1-60.6l-2.2-5.5-264.3-.3c-145.3-.1-264.2 0-264.2.2zM80.5 442c-10.4 1.5-19.5 8.7-24.6 19.5-3.7 7.7-4 17.5-.8 26 2.7 7.3 10.3 15.5 17.1 18.6l5.3 2.4 296.3.3c286.8.2 296.2.2 296.2-1.6 0-2.4-6.8-18-11.3-25.8-6.7-11.9-12.2-19-22.6-29.7L625.5 441l-270 .1c-148.5.1-272.3.5-275 .9zM1135.5 535.5c-.2 1.1-.7 4.2-1 7-.3 2.7-2.8 18.5-5.5 35s-5 31.6-5.2 33.5l-.3 3.5h255l2.2-9c3.8-15.2 7.4-43.3 7.6-58l.2-13.5-126.3-.2c-125.6-.3-126.3-.3-126.7 1.7zM1820.1 534.5c-.5.5-1.3 4.6-1.9 9-.6 4.4-3.4 21.9-6.1 39-2.8 17-4.7 31.3-4.3 31.7.5.5 57.9.7 127.7.6l127-.3 2.6-11.5c4.1-18.4 8.6-55.6 7.7-65.3l-.3-3.7-125.8-.3c-83-.1-126.1.1-126.6.8zM63.3 546c-13.6 2.7-23.8 14-26.2 29-2.6 15.7 5.1 29.8 19.9 36.9l5.5 2.6 85.8.3c47.1.1 85.7.1 85.7-.2 0-1 4.3-29.9 7.1-47.4 1.7-10.7 2.8-20 2.5-20.8-.5-1.2-13.2-1.4-88.3-1.3-48.3.1-89.7.5-92 .9zM439.6 545.8c-.5.8-3.5 18.8-6.6 39.2-.6 4.1-1.8 11.6-2.6 16.6-.8 5-1.4 10.1-1.4 11.3v2.1l124.7-.2 124.8-.3 1.4-8c1.8-10.3 2-54.7.3-58.8L679 545H559.6c-65.7 0-119.7.4-120 .8zM43.3 657.1c-10.7 3.4-19.5 12.1-22.5 22.2-1.8 6.3-1.6 25.4.3 29.7 2.6 5.8 10.5 13.7 16.7 16.7l5.7 2.8 293.9.3c215.2.1 294.2-.1 295.2-.9 2.1-1.7 14.4-22.2 20.1-33.4 5.1-10 16.3-36.4 16.3-38.4 0-.8-92.2-1.1-309.7-1-305.1 0-309.9 0-316 2zM779 656.6c-15.8 4.3-25.8 16.9-26.8 33.9-.9 17.5 8.6 31.5 25 36.7 5.8 1.7 16.2 1.8 277.3 1.8h271.4l6.4-9.8c9.7-14.8 13.3-21 20.1-35.4 7-14.7 10.6-23.8 10.6-26.8 0-2-2.5-2-289.2-1.9-251.4 0-290 .2-294.8 1.5zM1458.8 656.9c-15.3 4.9-24.7 17-25.6 33.2-.9 16.1 7.3 29.6 22.3 36.5 3.9 1.8 13.7 1.9 279.2 2.2l275.2.2 5.3-8.2c9.1-14 18.5-30.8 23.4-41.8 5-11.2 8.4-20.5 8.4-22.7 0-1.1-48.1-1.3-291.2-1.2-278.4 0-291.6.1-297 1.8zM24.5 771.6c-5.4 1.9-13.3 8-16.7 12.9-4.6 6.7-6.3 13-6.3 23.5 0 8 .4 10.3 2.4 14.4 4.8 9.7 12.9 16.5 22.7 19.1 8.6 2.2 380.3 2.3 405.4 0 48-4.2 89.3-17.4 123.9-39.3 15.5-9.9 40.1-29 40.1-31.2 0-.6-105.1-1-283.7-.9-243.1 0-284.4.3-287.8 1.5zM758.5 771.7c-17 6.9-26.6 23.4-23.5 40.5 2.3 12.3 9.2 21.2 21 27.1l6.5 3.2 184.5.3c131.1.2 188.1 0 196.9-.8 32.8-3 61.3-11.3 88.1-25.8 9.4-5.1 27.8-17.3 35.5-23.6 8.7-7.1 23.5-20.8 23.5-21.7 0-.5-113.5-.9-264.2-.8-241.2 0-264.7.1-268.3 1.6zM1440.8 771.4c-9.4 3.4-18.5 11.2-22.3 19.2-2.6 5.4-3.6 14.9-2.4 22.4 1.8 11.5 9.2 20.8 20.9 26.4l6.5 3.1H1637c183 0 194.1-.1 205-1.8 47.9-7.7 85.1-25.8 123.1-60.1 5.5-4.9 9.9-9.3 9.9-9.7 0-.5-115.8-.9-265.2-.9-215.7.1-266 .3-269 1.4z"/></g></svg>